<?xml version="1.0" encoding="utf-8"?>
<!-- Generator: Adobe Illustrator 21.1.0, SVG Export Plug-In . SVG Version: 6.00 Build 0)  -->
<svg version="1.1" id="图层_1" xmlns="http://www.w3.org/2000/svg" xmlns:xlink="http://www.w3.org/1999/xlink" x="0px" y="0px"
	 viewBox="0 0 200 200" style="enable-background:new 0 0 200 200;" xml:space="preserve">
<style type="text/css">
	.st0{fill:#FFFFFF;}
</style>
<path class="st0" d="M36.1,105.2c21.7-4.7,18.8-30.6,18.1-36.3c-1.1-8.7-11.3-24-25.3-22.8c-17.6,1.6-20.1,27-20.1,27
	C6.3,84.8,14.4,109.9,36.1,105.2z M59.1,150.4c-0.6,1.8-2.1,6.5-0.8,10.6c2.4,9.1,10.3,9.5,10.3,9.5H80v-27.8H67.8
	C62.4,144.3,59.7,148.5,59.1,150.4L59.1,150.4z M76.4,61.7c12,0,21.7-13.8,21.7-30.9c0-17-9.7-30.8-21.7-30.8
	c-12,0-21.7,13.8-21.7,30.8C54.7,47.9,64.4,61.7,76.4,61.7z M128,63.8c16,2.1,26.3-15,28.4-28c2.1-12.9-8.3-28-19.6-30.6
	c-11.4-2.6-25.6,15.6-26.9,27.5C108.4,47.2,112,61.7,128,63.8z M167.3,140c0,0-24.8-19.2-39.3-39.9c-19.6-30.6-47.5-18.1-56.8-2.6
	c-9.3,15.5-23.8,25.4-25.8,28c-2.1,2.6-30,17.6-23.8,45.1c6.2,27.5,27.9,26.9,27.9,26.9s16,1.6,34.6-2.6c18.6-4.1,34.6,1,34.6,1
	s43.4,14.5,55.3-13.4C185.9,154.5,167.3,140,167.3,140L167.3,140z M93,181.6H64.8c-12.2-2.4-17-10.7-17.7-12.2
	c-0.6-1.4-4.1-8.1-2.2-19.5c5.3-17,20.3-18.3,20.3-18.3h15v-18.5l12.8,0.2L93,181.6L93,181.6z M145.6,181.4h-32.5
	c-12.6-3.2-13.2-12.2-13.2-12.2v-35.9l13.2-0.2v32.3c0.8,3.4,5.1,4.1,5.1,4.1h13.4v-36.1h14L145.6,181.4L145.6,181.4z M191.6,85.5
	c0-6.2-5.2-24.9-24.3-24.9c-19.1,0-21.7,17.6-21.7,30.1c0,11.9,1,28.5,24.8,28C194.2,118.2,191.6,91.8,191.6,85.5L191.6,85.5z"/>
</svg>
